<svg clip-rule="evenodd" fill-rule="evenodd" stroke-linejoin="round" stroke-miterlimit="1.41421" viewBox="0 0 90 90" xmlns="http://www.w3.org/2000/svg"><circle cx="45" cy="45" fill="#fccc0a" r="45"/><path d="m36.0319 29.3424v12.8907h11.3607c2.2569 0 3.9496-.2604 5.0781-.7813 1.9965-.9114 2.9948-2.7127 2.9948-5.4036 0-2.908-.9657-4.8611-2.8971-5.8594-1.0851-.5642-2.7127-.8464-4.8829-.8464zm21.5007-7.0963c1.812.7595 3.3474 1.8772 4.6061 3.3529 1.0416 1.2152 1.8663 2.5607 2.4739 4.0364.6077 1.4757.9115 3.1576.9115 5.0456 0 2.2786-.5751 4.5193-1.7253 6.722-1.1501 2.2027-3.049 3.7598-5.6966 4.6712 2.2136.8898 3.7815 2.1539 4.7038 3.7923.9223 1.6385 1.3835 4.1396 1.3835 7.5033v3.2226c0 2.1919.0868 3.6784.2604 4.4597.2604 1.237.868 2.1484 1.8229 2.7344v1.2044h-11.0352c-.3038-1.0634-.5208-1.9206-.651-2.5716-.2604-1.3455-.4015-2.7236-.4232-4.1341l-.0651-4.4597c-.0434-3.0599-.6022-5.0998-1.6764-6.1198-1.0742-1.0199-3.087-1.5299-6.0384-1.5299h-10.3516v18.8151h-9.7982v-47.9818h23.5352c3.3637.0651 5.9516.4774 7.7637 1.237z" fill-rule="nonzero"/></svg>