<svg version="1.1" xmlns="http://www.w3.org/2000/svg" style="display: block;" viewBox="0 0 2048 2048" width="1024" height="1024">
<path transform="translate(0,0)" fill="rgb(255,255,255)" d="M 0 0 L 0 2048 L 2048 2048 L 2048 0 L 0 0 z"/>
<path transform="translate(0,0)" fill="rgb(0,0,0)" d="M 475.411 517.894 C 496.559 515.493 524.466 517.088 546.272 517.015 L 720.32 517.045 C 745.134 517.027 775.136 518.891 799.382 516.625 C 813.595 515.297 824.961 510.135 834.078 498.783 C 864.215 461.257 823.839 434.151 807.112 404.888 C 792.548 379.411 782.823 351.51 779.832 322.273 A 200.56 200.56 0 0 1 824.847 175.899 C 859.642 133.314 911.793 106.855 966.219 101.388 C 1005.03 97.5979 1047.48 107.498 1081.05 127.092 C 1128.72 154.924 1164.89 199.795 1178.96 253.507 C 1193.57 309.268 1181.82 365.695 1151.79 414.12 C 1144.64 425.659 1133.94 434.818 1127.24 446.617 C 1121.05 457.526 1119.12 470.439 1122.71 482.565 C 1126.86 496.558 1137.68 508.975 1151.57 513.909 C 1165.5 518.862 1210.13 516.909 1227.5 516.953 L 1415.51 516.821 L 1472.56 516.542 C 1483.95 516.441 1495.62 515.736 1506.96 516.624 C 1513.84 517.162 1521.03 518.453 1527.05 521.962 C 1536.34 527.379 1544.18 537.199 1546.85 547.676 C 1550.73 562.947 1548.15 629.502 1548.13 648.709 C 1548.05 712.193 1549.21 775.664 1548.75 839.145 C 1548.61 857.874 1545.41 894.286 1549.79 910.657 C 1552 918.892 1557 926.607 1564.7 930.63 C 1587.93 942.767 1607.21 921.889 1625.75 911.147 A 215.675 215.675 0 0 1 1663.61 894.142 C 1710.32 878.596 1764.4 883.768 1808.12 905.861 A 196.897 196.897 0 0 1 1907.36 1021.33 A 192.271 192.271 0 0 1 1894.87 1169.47 A 198.398 198.398 0 0 1 1777.61 1267.19 C 1727.84 1282.29 1674.6 1275.61 1629.05 1251.44 C 1617.51 1245.31 1607.61 1236.38 1596.13 1230.41 C 1587.3 1225.82 1578.06 1225.01 1568.55 1228.21 C 1558.9 1231.45 1551.75 1239.26 1548.95 1249.08 C 1545.4 1261.56 1547.85 1290.06 1547.72 1304.29 L 1547.28 1476.34 C 1547.14 1499.05 1548.85 1522.74 1546.94 1545.3 C 1546.36 1552.11 1544.77 1558.41 1541.47 1564.44 C 1535.9 1574.64 1525.78 1585.49 1514.57 1589.15 C 1497.37 1594.76 1466.73 1590.95 1447.78 1590.91 L 1245.78 1591.03 C 1225.24 1591.09 1165.77 1587.65 1148.65 1593.47 C 1138.82 1596.81 1129.57 1603.76 1125.24 1613.38 C 1114.07 1638.2 1136.95 1655.33 1149.61 1673.67 A 163.877 163.877 0 0 1 1168.47 1709.23 A 206.592 206.592 0 0 1 1164.09 1869.26 A 206.605 206.605 0 0 1 1050.58 1977.17 A 202.861 202.861 0 0 1 897.559 1972.3 C 844.511 1948.29 808.182 1906.22 787.581 1852.26 C 770.311 1795.22 775.276 1728.87 809.693 1678.87 C 819.624 1664.44 835.753 1653.58 837.086 1634.65 C 837.838 1623.98 833.925 1613.59 826.836 1605.64 C 820.751 1598.83 811.529 1593.2 802.511 1591.47 C 781.53 1587.46 742.455 1589.97 719.594 1589.79 L 552.18 1589.25 C 524.321 1589.15 496.278 1589.82 468.456 1588.53 C 441.96 1569.15 413.11 1533.53 394.308 1506.51 C 346.17 1437.35 314.957 1345.8 330.475 1261.29 C 337.229 1224.5 353.419 1183.89 385.43 1161.99 C 403.597 1149.55 424.486 1143.8 446.355 1147.94 C 475.804 1153.52 487.804 1169.55 503.736 1192.69 A 176.317 176.317 0 0 0 616.221 1265.19 A 179.626 179.626 0 0 0 748.772 1236.23 C 787.073 1209.64 814.668 1165.11 822.565 1119.3 A 187.23 187.23 0 0 0 790.725 980.253 C 763.921 942.411 720.056 915.268 674.416 907.637 C 617.092 898.052 558.86 919.474 519.177 961.286 C 506.603 974.535 496.854 991.871 481.806 1002.4 C 465.861 1013.56 445.297 1017.36 426.256 1013.97 C 398.729 1009.07 375.387 990.028 359.941 967.441 C 322.543 912.754 317.244 833.071 329.467 769.369 C 347.219 676.857 395.434 572.161 475.411 517.894 z"/>
</svg>